<svg xmlns="http://www.w3.org/2000/svg" xmlns:xlink="http://www.w3.org/1999/xlink" width="500" zoomAndPan="magnify" viewBox="0 0 375 374.999991" height="500" preserveAspectRatio="xMidYMid meet" version="1.0"><defs><g/><clipPath id="29e08753ae"><path d="M 58 150 L 126 150 L 126 282.863281 L 58 282.863281 Z M 58 150 " clip-rule="nonzero"/></clipPath><clipPath id="5cdbd0e0cd"><path d="M 231 150 L 299 150 L 299 282.863281 L 231 282.863281 Z M 231 150 " clip-rule="nonzero"/></clipPath><clipPath id="0892fa7f64"><path d="M 58 20.363281 L 298 20.363281 L 298 179 L 58 179 Z M 58 20.363281 " clip-rule="nonzero"/></clipPath><clipPath id="3fbc590aaf"><path d="M 133.492188 187.5 L 223.492188 187.5 L 223.492188 277.5 L 133.492188 277.5 Z M 133.492188 187.5 " clip-rule="nonzero"/></clipPath></defs><g clip-path="url(#29e08753ae)"><path fill="#41c9d5" d="M 101.875 282.984375 C 98.234375 282.984375 94.644531 282.007812 91.4375 280.09375 C 86.738281 277.292969 83.410156 272.835938 82.066406 267.535156 L 58.90625 176.273438 C 57.5625 170.96875 58.363281 165.460938 61.164062 160.761719 C 63.960938 156.0625 68.421875 152.730469 73.722656 151.386719 L 76.34375 150.722656 C 87.289062 147.941406 98.453125 154.589844 101.226562 165.535156 L 124.378906 256.804688 C 125.722656 262.109375 124.925781 267.617188 122.125 272.316406 C 119.324219 277.015625 114.867188 280.34375 109.566406 281.6875 L 106.945312 282.355469 C 105.265625 282.777344 103.5625 282.984375 101.875 282.984375 Z M 81.378906 157.726562 C 80.335938 157.726562 79.277344 157.855469 78.222656 158.125 L 75.601562 158.789062 C 72.277344 159.636719 69.476562 161.722656 67.722656 164.671875 C 65.96875 167.617188 65.46875 171.074219 66.308594 174.398438 L 89.460938 265.667969 C 90.308594 268.992188 92.394531 271.792969 95.34375 273.542969 C 98.289062 275.300781 101.742188 275.796875 105.070312 274.957031 L 107.691406 274.292969 C 111.015625 273.445312 113.816406 271.359375 115.566406 268.410156 C 117.324219 265.464844 117.824219 262.007812 116.984375 258.683594 L 93.832031 167.414062 C 92.355469 161.605469 87.109375 157.726562 81.378906 157.726562 Z M 81.378906 157.726562 " fill-opacity="1" fill-rule="nonzero"/></g><path fill="#41c9d5" d="M 77.929688 271.882812 C 65.367188 271.882812 53.886719 263.390625 50.660156 250.664062 L 39.34375 206.070312 C 37.496094 198.785156 38.59375 191.21875 42.4375 184.757812 C 46.28125 178.304688 52.410156 173.726562 59.695312 171.878906 L 61.609375 171.394531 C 63.65625 170.875 65.734375 172.113281 66.246094 174.15625 L 89.519531 265.890625 C 90.039062 267.933594 88.800781 270.007812 86.757812 270.527344 L 84.84375 271.019531 C 82.535156 271.601562 80.210938 271.882812 77.929688 271.882812 Z M 59.804688 179.816406 C 55.273438 181.398438 51.480469 184.492188 48.996094 188.667969 C 46.195312 193.371094 45.394531 198.886719 46.738281 204.191406 L 58.050781 248.792969 C 60.679688 259.144531 70.800781 265.652344 81.152344 263.992188 Z M 59.804688 179.816406 " fill-opacity="1" fill-rule="nonzero"/><g clip-path="url(#5cdbd0e0cd)"><path fill="#41c9d5" d="M 254.699219 282.980469 C 253.035156 282.980469 251.351562 282.777344 249.664062 282.351562 L 247.042969 281.683594 C 241.746094 280.339844 237.28125 277.007812 234.484375 272.3125 C 231.683594 267.613281 230.886719 262.105469 232.230469 256.800781 L 255.382812 165.53125 C 256.726562 160.230469 260.054688 155.765625 264.753906 152.972656 C 269.453125 150.175781 274.960938 149.371094 280.265625 150.722656 L 282.886719 151.386719 C 288.1875 152.730469 292.652344 156.0625 295.449219 160.761719 C 298.246094 165.460938 299.046875 170.96875 297.703125 176.273438 L 274.550781 267.539062 C 272.203125 276.796875 263.847656 282.980469 254.699219 282.980469 Z M 275.210938 157.722656 C 272.929688 157.722656 270.679688 158.335938 268.664062 159.535156 C 265.71875 161.289062 263.628906 164.085938 262.785156 167.410156 L 239.632812 258.675781 C 238.785156 262 239.289062 265.457031 241.046875 268.40625 C 242.804688 271.355469 245.597656 273.441406 248.921875 274.285156 L 251.542969 274.953125 C 258.40625 276.695312 265.40625 272.523438 267.148438 265.664062 L 290.300781 174.394531 C 291.144531 171.070312 290.640625 167.613281 288.886719 164.664062 C 287.128906 161.71875 284.335938 159.628906 281.011719 158.785156 L 278.386719 158.117188 C 277.339844 157.855469 276.269531 157.722656 275.210938 157.722656 Z M 275.210938 157.722656 " fill-opacity="1" fill-rule="nonzero"/></g><path fill="#41c9d5" d="M 278.683594 271.882812 C 276.398438 271.882812 274.082031 271.601562 271.769531 271.019531 L 269.855469 270.527344 C 267.8125 270.007812 266.578125 267.933594 267.097656 265.890625 L 290.367188 174.160156 C 290.886719 172.117188 292.964844 170.882812 295.003906 171.398438 L 296.917969 171.882812 C 304.203125 173.730469 310.332031 178.304688 314.175781 184.765625 C 318.019531 191.21875 319.121094 198.789062 317.273438 206.074219 L 305.960938 250.675781 C 302.726562 263.390625 291.246094 271.882812 278.683594 271.882812 Z M 275.449219 263.988281 C 285.800781 265.652344 295.925781 259.140625 298.554688 248.785156 L 309.863281 204.183594 C 312.492188 193.832031 306.691406 183.28125 296.800781 179.808594 Z M 275.449219 263.988281 " fill-opacity="1" fill-rule="nonzero"/><g clip-path="url(#0892fa7f64)"><path fill="#41c9d5" d="M 294.0625 178.914062 C 291.957031 178.914062 290.246094 177.203125 290.246094 175.097656 L 290.246094 140.085938 C 290.246094 110.1875 278.601562 82.078125 257.460938 60.933594 C 236.316406 39.792969 208.207031 28.148438 178.308594 28.148438 C 148.410156 28.148438 120.292969 39.792969 99.148438 60.933594 C 78.007812 82.078125 66.363281 110.1875 66.363281 140.085938 L 66.363281 175.097656 C 66.363281 177.203125 64.65625 178.914062 62.546875 178.914062 C 60.4375 178.914062 58.730469 177.203125 58.730469 175.097656 L 58.730469 140.085938 C 58.730469 108.148438 71.164062 78.117188 93.753906 55.53125 C 116.335938 32.949219 146.367188 20.511719 178.308594 20.511719 C 210.246094 20.511719 240.277344 32.949219 262.859375 55.539062 C 285.445312 78.121094 297.886719 108.152344 297.886719 140.089844 L 297.886719 175.101562 C 297.882812 177.203125 296.175781 178.914062 294.0625 178.914062 Z M 294.0625 178.914062 " fill-opacity="1" fill-rule="nonzero"/></g><path fill="#41c9d5" d="M 81.050781 157.15625 C 78.945312 157.15625 77.234375 155.445312 77.234375 153.339844 L 77.234375 139.082031 C 77.234375 83.347656 122.574219 38.011719 178.308594 38.011719 C 180.414062 38.011719 182.125 39.722656 182.125 41.828125 C 182.125 43.9375 180.414062 45.644531 178.308594 45.644531 C 126.789062 45.644531 84.871094 87.5625 84.871094 139.082031 L 84.871094 153.339844 C 84.871094 155.445312 83.160156 157.15625 81.050781 157.15625 Z M 81.050781 157.15625 " fill-opacity="1" fill-rule="nonzero"/><path fill="#41c9d5" d="M 275.5625 157.15625 C 273.457031 157.15625 271.746094 155.445312 271.746094 153.339844 L 271.746094 139.082031 C 271.746094 87.558594 229.828125 45.644531 178.308594 45.644531 C 176.199219 45.644531 174.488281 43.9375 174.488281 41.828125 C 174.488281 39.722656 176.199219 38.011719 178.308594 38.011719 C 234.042969 38.011719 279.378906 83.347656 279.378906 139.082031 L 279.378906 153.339844 C 279.378906 155.445312 277.671875 157.15625 275.5625 157.15625 Z M 275.5625 157.15625 " fill-opacity="1" fill-rule="nonzero"/><g clip-path="url(#3fbc590aaf)"><path fill="#6141ac" d="M 223.140625 232.324219 C 223.140625 233.792969 223.070312 235.257812 222.925781 236.71875 C 222.78125 238.179688 222.566406 239.628906 222.277344 241.070312 C 221.992188 242.507812 221.636719 243.929688 221.210938 245.335938 C 220.785156 246.742188 220.289062 248.121094 219.726562 249.476562 C 219.167969 250.832031 218.539062 252.160156 217.847656 253.453125 C 217.15625 254.75 216.402344 256.007812 215.585938 257.226562 C 214.769531 258.449219 213.898438 259.625 212.964844 260.761719 C 212.035156 261.894531 211.050781 262.980469 210.011719 264.019531 C 208.972656 265.058594 207.886719 266.042969 206.753906 266.972656 C 205.617188 267.90625 204.441406 268.777344 203.21875 269.59375 C 202 270.410156 200.742188 271.164062 199.445312 271.855469 C 198.152344 272.546875 196.824219 273.175781 195.46875 273.738281 C 194.113281 274.296875 192.734375 274.792969 191.328125 275.21875 C 189.921875 275.644531 188.5 276 187.0625 276.289062 C 185.621094 276.574219 184.171875 276.789062 182.710938 276.933594 C 181.25 277.078125 179.785156 277.148438 178.316406 277.148438 C 176.847656 277.148438 175.382812 277.078125 173.921875 276.933594 C 172.460938 276.789062 171.011719 276.574219 169.570312 276.289062 C 168.132812 276 166.710938 275.644531 165.304688 275.21875 C 163.898438 274.792969 162.519531 274.296875 161.164062 273.738281 C 159.804688 273.175781 158.480469 272.546875 157.1875 271.855469 C 155.890625 271.164062 154.632812 270.410156 153.414062 269.59375 C 152.191406 268.777344 151.015625 267.90625 149.878906 266.972656 C 148.746094 266.042969 147.660156 265.058594 146.621094 264.019531 C 145.582031 262.980469 144.597656 261.894531 143.667969 260.761719 C 142.734375 259.625 141.863281 258.449219 141.046875 257.226562 C 140.230469 256.007812 139.476562 254.75 138.785156 253.453125 C 138.09375 252.160156 137.464844 250.832031 136.902344 249.476562 C 136.34375 248.121094 135.847656 246.742188 135.421875 245.335938 C 134.996094 243.929688 134.640625 242.507812 134.351562 241.070312 C 134.066406 239.628906 133.851562 238.179688 133.707031 236.71875 C 133.5625 235.257812 133.492188 233.792969 133.492188 232.324219 C 133.492188 230.855469 133.5625 229.390625 133.707031 227.929688 C 133.851562 226.46875 134.066406 225.019531 134.351562 223.578125 C 134.640625 222.140625 134.996094 220.71875 135.421875 219.3125 C 135.847656 217.90625 136.34375 216.527344 136.902344 215.171875 C 137.464844 213.8125 138.09375 212.488281 138.785156 211.195312 C 139.476562 209.898438 140.230469 208.640625 141.046875 207.421875 C 141.863281 206.199219 142.734375 205.023438 143.667969 203.886719 C 144.597656 202.753906 145.582031 201.667969 146.621094 200.628906 C 147.660156 199.589844 148.746094 198.605469 149.878906 197.675781 C 151.015625 196.742188 152.191406 195.871094 153.414062 195.054688 C 154.632812 194.238281 155.890625 193.484375 157.1875 192.792969 C 158.480469 192.101562 159.804688 191.472656 161.164062 190.910156 C 162.519531 190.351562 163.898438 189.855469 165.304688 189.429688 C 166.710938 189.003906 168.132812 188.648438 169.570312 188.359375 C 171.011719 188.074219 172.460938 187.859375 173.921875 187.714844 C 175.382812 187.570312 176.847656 187.5 178.316406 187.5 C 179.785156 187.5 181.25 187.570312 182.710938 187.714844 C 184.171875 187.859375 185.621094 188.074219 187.0625 188.359375 C 188.5 188.648438 189.921875 189.003906 191.328125 189.429688 C 192.734375 189.855469 194.113281 190.351562 195.46875 190.910156 C 196.824219 191.472656 198.152344 192.101562 199.445312 192.792969 C 200.742188 193.484375 202 194.238281 203.21875 195.054688 C 204.441406 195.871094 205.617188 196.742188 206.753906 197.675781 C 207.886719 198.605469 208.972656 199.589844 210.011719 200.628906 C 211.050781 201.667969 212.035156 202.753906 212.964844 203.886719 C 213.898438 205.023438 214.769531 206.199219 215.585938 207.421875 C 216.402344 208.640625 217.15625 209.898438 217.847656 211.195312 C 218.539062 212.488281 219.167969 213.8125 219.726562 215.171875 C 220.289062 216.527344 220.785156 217.90625 221.210938 219.3125 C 221.636719 220.71875 221.992188 222.140625 222.277344 223.578125 C 222.566406 225.019531 222.78125 226.46875 222.925781 227.929688 C 223.070312 229.390625 223.140625 230.855469 223.140625 232.324219 Z M 223.140625 232.324219 " fill-opacity="1" fill-rule="nonzero"/></g><path fill="#f1f6e1" d="M 209.019531 237.164062 C 208.125 237.164062 207.453125 236.402344 207.453125 235.507812 L 207.453125 229.589844 C 207.453125 228.695312 208.125 227.929688 209.019531 227.929688 C 209.917969 227.929688 210.589844 228.695312 210.589844 229.589844 L 210.589844 235.550781 C 210.589844 236.449219 209.917969 237.164062 209.019531 237.164062 Z M 209.019531 237.164062 " fill-opacity="1" fill-rule="nonzero"/><path fill="#f1f6e1" d="M 151.644531 237.164062 C 150.75 237.164062 150.078125 236.402344 150.078125 235.507812 L 150.078125 229.589844 C 150.078125 228.695312 150.75 227.929688 151.644531 227.929688 C 152.542969 227.929688 153.214844 228.695312 153.214844 229.589844 L 153.214844 235.550781 C 153.214844 236.449219 152.542969 237.164062 151.644531 237.164062 Z M 151.644531 237.164062 " fill-opacity="1" fill-rule="nonzero"/><path fill="#f1f6e1" d="M 164.195312 256.035156 C 163.253906 256.035156 162.628906 255.140625 162.628906 254.0625 L 162.628906 211.03125 C 162.628906 209.957031 163.253906 209.058594 164.195312 209.058594 C 165.136719 209.058594 165.765625 209.957031 165.765625 211.03125 L 165.765625 254.109375 C 165.765625 255.183594 165.09375 256.035156 164.195312 256.035156 Z M 164.195312 256.035156 " fill-opacity="1" fill-rule="nonzero"/><path fill="#f1f6e1" d="M 157.472656 245.503906 C 156.53125 245.503906 155.902344 244.742188 155.902344 243.84375 L 155.902344 221.296875 C 155.902344 220.355469 156.53125 219.640625 157.472656 219.640625 C 158.414062 219.640625 159.042969 220.402344 159.042969 221.296875 L 159.042969 243.84375 C 159.042969 244.742188 158.371094 245.503906 157.472656 245.503906 Z M 157.472656 245.503906 " fill-opacity="1" fill-rule="nonzero"/><path fill="#f1f6e1" d="M 170.695312 245.503906 C 169.753906 245.503906 168.902344 244.742188 168.902344 243.84375 L 168.902344 221.296875 C 168.902344 220.355469 169.753906 219.640625 170.695312 219.640625 C 171.636719 219.640625 172.488281 220.402344 172.488281 221.296875 L 172.488281 243.84375 C 172.488281 244.742188 171.59375 245.503906 170.695312 245.503906 Z M 170.695312 245.503906 " fill-opacity="1" fill-rule="nonzero"/><path fill="#f1f6e1" d="M 183.246094 245.503906 C 182.304688 245.503906 181.453125 244.742188 181.453125 243.84375 L 181.453125 221.296875 C 181.453125 220.355469 182.304688 219.640625 183.246094 219.640625 C 184.1875 219.640625 185.039062 220.402344 185.039062 221.296875 L 185.039062 243.84375 C 185.039062 244.742188 184.144531 245.503906 183.246094 245.503906 Z M 183.246094 245.503906 " fill-opacity="1" fill-rule="nonzero"/><path fill="#f1f6e1" d="M 196.46875 245.503906 C 195.527344 245.503906 194.902344 244.742188 194.902344 243.84375 L 194.902344 221.296875 C 194.902344 220.355469 195.527344 219.640625 196.46875 219.640625 C 197.410156 219.640625 198.039062 220.402344 198.039062 221.296875 L 198.039062 243.84375 C 198.039062 244.742188 197.367188 245.503906 196.46875 245.503906 Z M 196.46875 245.503906 " fill-opacity="1" fill-rule="nonzero"/><path fill="#f1f6e1" d="M 189.96875 239.628906 C 189.027344 239.628906 188.175781 238.867188 188.175781 237.972656 L 188.175781 227.125 C 188.175781 226.183594 189.027344 225.464844 189.96875 225.464844 C 190.910156 225.464844 191.761719 226.226562 191.761719 227.125 L 191.761719 237.972656 C 191.761719 238.914062 190.867188 239.628906 189.96875 239.628906 Z M 189.96875 239.628906 " fill-opacity="1" fill-rule="nonzero"/><path fill="#f1f6e1" d="M 203.195312 239.585938 C 202.253906 239.585938 201.625 238.824219 201.625 237.925781 L 201.625 227.035156 C 201.625 226.09375 202.253906 225.375 203.195312 225.375 C 204.136719 225.375 204.761719 226.136719 204.761719 227.035156 L 204.761719 237.882812 C 204.761719 238.824219 204.089844 239.585938 203.195312 239.585938 Z M 203.195312 239.585938 " fill-opacity="1" fill-rule="nonzero"/><path fill="#f1f6e1" d="M 177.195312 239.628906 C 176.253906 239.628906 175.625 238.867188 175.625 237.972656 L 175.625 227.125 C 175.625 226.183594 176.253906 225.464844 177.195312 225.464844 C 178.136719 225.464844 178.765625 226.226562 178.765625 227.125 L 178.765625 237.972656 C 178.765625 238.914062 178.09375 239.628906 177.195312 239.628906 Z M 177.195312 239.628906 " fill-opacity="1" fill-rule="nonzero"/><g fill="#6141ac" fill-opacity="1"><g transform="translate(75.212343, 343.906382)"><g><path d="M 2.0625 -10.53125 L 2.0625 -13.875 L 7.46875 -13.875 L 7.46875 -10.109375 C 7.46875 -8.023438 7.644531 -6.5625 8 -5.71875 C 8.351562 -4.875 9.019531 -4.453125 10 -4.453125 C 10.976562 -4.453125 11.625 -4.796875 11.9375 -5.484375 C 12.257812 -6.179688 12.421875 -7.316406 12.421875 -8.890625 C 12.421875 -10.460938 12.132812 -11.832031 11.5625 -13 C 11 -14.175781 10.101562 -15.398438 8.875 -16.671875 L 6.109375 -19.53125 C 4.816406 -20.875 3.8125 -22.269531 3.09375 -23.71875 C 2.375 -25.164062 2.015625 -26.835938 2.015625 -28.734375 C 2.015625 -31.828125 2.609375 -34.125 3.796875 -35.625 C 4.992188 -37.132812 7.046875 -37.890625 9.953125 -37.890625 C 12.859375 -37.890625 14.828125 -37.007812 15.859375 -35.25 C 16.890625 -33.5 17.40625 -30.945312 17.40625 -27.59375 L 17.40625 -25.265625 L 12.140625 -25.265625 L 12.140625 -27.953125 C 12.140625 -29.765625 11.984375 -31.0625 11.671875 -31.84375 C 11.359375 -32.632812 10.757812 -33.03125 9.875 -33.03125 C 8.988281 -33.03125 8.347656 -32.734375 7.953125 -32.140625 C 7.566406 -31.546875 7.375 -30.648438 7.375 -29.453125 C 7.375 -28.265625 7.570312 -27.316406 7.96875 -26.609375 C 8.375 -25.898438 9.09375 -24.992188 10.125 -23.890625 L 13.203125 -20.546875 C 14.753906 -18.867188 15.921875 -17.171875 16.703125 -15.453125 C 17.492188 -13.742188 17.890625 -11.875 17.890625 -9.84375 C 17.890625 -6.34375 17.300781 -3.753906 16.125 -2.078125 C 14.945312 -0.410156 12.882812 0.421875 9.9375 0.421875 C 7 0.421875 4.953125 -0.507812 3.796875 -2.375 C 2.640625 -4.238281 2.0625 -6.957031 2.0625 -10.53125 Z M 2.0625 -10.53125 "/></g></g></g><g fill="#6141ac" fill-opacity="1"><g transform="translate(94.464429, 343.906382)"><g><path d="M 10.34375 -4.171875 C 11.21875 -4.171875 11.8125 -4.554688 12.125 -5.328125 C 12.445312 -6.097656 12.609375 -7.25 12.609375 -8.78125 L 12.609375 -23.0625 C 12.609375 -24.613281 12.445312 -25.78125 12.125 -26.5625 C 11.800781 -27.34375 11.195312 -27.734375 10.3125 -27.734375 C 9.4375 -27.734375 8.832031 -27.347656 8.5 -26.578125 C 8.175781 -25.804688 8.015625 -24.632812 8.015625 -23.0625 L 8.015625 -8.78125 C 8.015625 -6.445312 8.398438 -5.015625 9.171875 -4.484375 C 9.484375 -4.273438 9.875 -4.171875 10.34375 -4.171875 Z M 10.34375 0.390625 C 7.332031 0.390625 5.242188 -0.507812 4.078125 -2.3125 C 2.921875 -4.113281 2.34375 -6.71875 2.34375 -10.125 L 2.34375 -22.0625 C 2.34375 -28.875 5 -32.28125 10.3125 -32.28125 C 15.632812 -32.28125 18.296875 -28.875 18.296875 -22.0625 L 18.296875 -10.125 C 18.296875 -4.800781 16.925781 -1.53125 14.1875 -0.3125 C 13.132812 0.15625 11.851562 0.390625 10.34375 0.390625 Z M 10.34375 0.390625 "/></g></g></g><g fill="#6141ac" fill-opacity="1"><g transform="translate(115.099255, 343.906382)"><g><path d="M 8.28125 0.40625 C 4.488281 0.40625 2.59375 -2.140625 2.59375 -7.234375 L 2.59375 -31.90625 L 8.25 -31.90625 L 8.25 -8.109375 C 8.25 -6.785156 8.410156 -5.804688 8.734375 -5.171875 C 9.066406 -4.546875 9.679688 -4.234375 10.578125 -4.234375 C 12.285156 -4.234375 13.140625 -5.507812 13.140625 -8.0625 L 13.171875 -31.90625 L 18.78125 -31.90625 L 18.78125 0 L 13.140625 0 L 13.140625 -3.3125 C 12.253906 -0.832031 10.632812 0.40625 8.28125 0.40625 Z M 8.28125 0.40625 "/></g></g></g><g fill="#6141ac" fill-opacity="1"><g transform="translate(136.691373, 343.906382)"><g><path d="M 13.578125 -32.28125 C 17.253906 -32.28125 19.09375 -29.894531 19.09375 -25.125 L 19.09375 0 L 13.46875 0 L 13.46875 -24.78125 C 13.46875 -25.695312 13.253906 -26.414062 12.828125 -26.9375 C 12.410156 -27.46875 11.804688 -27.734375 11.015625 -27.734375 C 10.222656 -27.734375 9.59375 -27.390625 9.125 -26.703125 C 8.664062 -26.023438 8.4375 -25.113281 8.4375 -23.96875 L 8.4375 0 L 2.8125 0 L 2.8125 -31.90625 L 8.4375 -31.90625 L 8.4375 -28.25 C 8.726562 -29.382812 9.335938 -30.335938 10.265625 -31.109375 C 11.203125 -31.890625 12.304688 -32.28125 13.578125 -32.28125 Z M 13.578125 -32.28125 "/></g></g></g><g fill="#6141ac" fill-opacity="1"><g transform="translate(158.38985, 343.906382)"><g><path d="M 8.203125 0.3125 C 6.492188 0.3125 5.210938 -0.164062 4.359375 -1.125 C 3.503906 -2.09375 2.953125 -3.316406 2.703125 -4.796875 C 2.460938 -6.273438 2.34375 -8.070312 2.34375 -10.1875 L 2.34375 -23.1875 C 2.34375 -25.851562 2.832031 -28.035156 3.8125 -29.734375 C 4.789062 -31.429688 6.40625 -32.28125 8.65625 -32.28125 C 9.53125 -32.28125 10.332031 -32.066406 11.0625 -31.640625 C 11.800781 -31.222656 12.375 -30.648438 12.78125 -29.921875 L 12.78125 -37.75 L 18.421875 -37.75 L 18.421875 0 L 12.78125 0 L 12.78125 -2.953125 C 11.925781 -0.773438 10.398438 0.3125 8.203125 0.3125 Z M 8.015625 -9.421875 C 8.015625 -7.660156 8.179688 -6.34375 8.515625 -5.46875 C 8.847656 -4.601562 9.472656 -4.171875 10.390625 -4.171875 C 11.304688 -4.171875 11.9375 -4.601562 12.28125 -5.46875 C 12.632812 -6.34375 12.8125 -7.800781 12.8125 -9.84375 L 12.8125 -22.609375 C 12.8125 -25.234375 12.410156 -26.820312 11.609375 -27.375 C 11.273438 -27.601562 10.863281 -27.71875 10.375 -27.71875 C 9.425781 -27.71875 8.796875 -27.285156 8.484375 -26.421875 C 8.171875 -25.554688 8.015625 -24.265625 8.015625 -22.546875 Z M 8.015625 -9.421875 "/></g></g></g><g fill="#6141ac" fill-opacity="1"><g transform="translate(179.620321, 343.906382)"><g><path d="M 2.0625 -10.53125 L 2.0625 -13.875 L 7.46875 -13.875 L 7.46875 -10.109375 C 7.46875 -8.023438 7.644531 -6.5625 8 -5.71875 C 8.351562 -4.875 9.019531 -4.453125 10 -4.453125 C 10.976562 -4.453125 11.625 -4.796875 11.9375 -5.484375 C 12.257812 -6.179688 12.421875 -7.316406 12.421875 -8.890625 C 12.421875 -10.460938 12.132812 -11.832031 11.5625 -13 C 11 -14.175781 10.101562 -15.398438 8.875 -16.671875 L 6.109375 -19.53125 C 4.816406 -20.875 3.8125 -22.269531 3.09375 -23.71875 C 2.375 -25.164062 2.015625 -26.835938 2.015625 -28.734375 C 2.015625 -31.828125 2.609375 -34.125 3.796875 -35.625 C 4.992188 -37.132812 7.046875 -37.890625 9.953125 -37.890625 C 12.859375 -37.890625 14.828125 -37.007812 15.859375 -35.25 C 16.890625 -33.5 17.40625 -30.945312 17.40625 -27.59375 L 17.40625 -25.265625 L 12.140625 -25.265625 L 12.140625 -27.953125 C 12.140625 -29.765625 11.984375 -31.0625 11.671875 -31.84375 C 11.359375 -32.632812 10.757812 -33.03125 9.875 -33.03125 C 8.988281 -33.03125 8.347656 -32.734375 7.953125 -32.140625 C 7.566406 -31.546875 7.375 -30.648438 7.375 -29.453125 C 7.375 -28.265625 7.570312 -27.316406 7.96875 -26.609375 C 8.375 -25.898438 9.09375 -24.992188 10.125 -23.890625 L 13.203125 -20.546875 C 14.753906 -18.867188 15.921875 -17.171875 16.703125 -15.453125 C 17.492188 -13.742188 17.890625 -11.875 17.890625 -9.84375 C 17.890625 -6.34375 17.300781 -3.753906 16.125 -2.078125 C 14.945312 -0.410156 12.882812 0.421875 9.9375 0.421875 C 7 0.421875 4.953125 -0.507812 3.796875 -2.375 C 2.640625 -4.238281 2.0625 -6.957031 2.0625 -10.53125 Z M 2.0625 -10.53125 "/></g></g></g><g fill="#6141ac" fill-opacity="1"><g transform="translate(198.872407, 343.906382)"><g><path d="M 10.5 0.390625 C 7.3125 0.390625 5.15625 -0.550781 4.03125 -2.4375 C 2.90625 -4.332031 2.34375 -7.066406 2.34375 -10.640625 L 2.34375 -20.96875 C 2.34375 -25.601562 3.148438 -28.734375 4.765625 -30.359375 C 6.054688 -31.640625 8.003906 -32.28125 10.609375 -32.28125 C 13.222656 -32.28125 15.109375 -31.488281 16.265625 -29.90625 C 17.429688 -28.332031 18.015625 -26.054688 18.015625 -23.078125 L 18.015625 -19.5625 L 12.578125 -19.5625 L 12.578125 -23.265625 C 12.578125 -25.210938 12.398438 -26.429688 12.046875 -26.921875 C 11.703125 -27.421875 11.117188 -27.671875 10.296875 -27.671875 C 9.472656 -27.671875 8.882812 -27.300781 8.53125 -26.5625 C 8.1875 -25.832031 8.015625 -24.707031 8.015625 -23.1875 L 8.015625 -8.8125 C 8.015625 -7.226562 8.171875 -6.066406 8.484375 -5.328125 C 8.804688 -4.597656 9.429688 -4.234375 10.359375 -4.234375 C 11.617188 -4.242188 12.332031 -5.128906 12.5 -6.890625 C 12.550781 -7.304688 12.578125 -7.789062 12.578125 -8.34375 C 12.578125 -8.476562 12.578125 -8.625 12.578125 -8.78125 L 12.578125 -12.578125 L 18.015625 -12.578125 L 18.015625 -9.34375 C 18.015625 -6.21875 17.429688 -3.8125 16.265625 -2.125 C 15.109375 -0.445312 13.1875 0.390625 10.5 0.390625 Z M 10.5 0.390625 "/></g></g></g><g fill="#6141ac" fill-opacity="1"><g transform="translate(218.932867, 343.906382)"><g><path d="M 12.578125 -17.3125 C 10.785156 -16.519531 9.578125 -15.769531 8.953125 -15.0625 C 8.328125 -14.351562 8.015625 -13.253906 8.015625 -11.765625 L 8.015625 -8.34375 C 8.015625 -6.851562 8.171875 -5.785156 8.484375 -5.140625 C 8.796875 -4.492188 9.300781 -4.171875 10 -4.171875 C 10.707031 -4.171875 11.285156 -4.40625 11.734375 -4.875 C 12.179688 -5.351562 12.460938 -5.890625 12.578125 -6.484375 Z M 8.125 0.3125 C 6.039062 0.3125 4.550781 -0.429688 3.65625 -1.921875 C 2.757812 -3.421875 2.300781 -5.570312 2.28125 -8.375 L 2.28125 -10.421875 C 2.28125 -13.140625 3.015625 -15.203125 4.484375 -16.609375 C 5.429688 -17.535156 7.039062 -18.429688 9.3125 -19.296875 C 9.726562 -19.453125 10.300781 -19.660156 11.03125 -19.921875 C 11.757812 -20.191406 12.273438 -20.382812 12.578125 -20.5 L 12.578125 -23.296875 C 12.578125 -25.023438 12.453125 -26.195312 12.203125 -26.8125 C 11.953125 -27.425781 11.382812 -27.734375 10.5 -27.734375 C 9.613281 -27.734375 9.019531 -27.40625 8.71875 -26.75 C 8.425781 -26.101562 8.28125 -25.007812 8.28125 -23.46875 L 8.28125 -22.03125 L 2.703125 -22.03125 L 2.703125 -23 C 2.703125 -26.019531 3.265625 -28.320312 4.390625 -29.90625 C 5.515625 -31.488281 7.515625 -32.28125 10.390625 -32.28125 C 13.265625 -32.28125 15.304688 -31.488281 16.515625 -29.90625 C 17.722656 -28.320312 18.328125 -25.941406 18.328125 -22.765625 L 18.328125 0 L 12.65625 0 L 12.65625 -3.171875 C 12.375 -2.191406 11.832031 -1.363281 11.03125 -0.6875 C 10.226562 -0.0195312 9.257812 0.3125 8.125 0.3125 Z M 8.125 0.3125 "/></g></g></g><g fill="#6141ac" fill-opacity="1"><g transform="translate(239.801703, 343.906382)"><g><path d="M 2.8125 6.0625 L 2.8125 -31.90625 L 8.4375 -31.90625 L 8.4375 -29.03125 C 8.84375 -30.039062 9.476562 -30.820312 10.34375 -31.375 C 11.207031 -31.9375 12.109375 -32.21875 13.046875 -32.21875 C 13.992188 -32.21875 14.820312 -32.050781 15.53125 -31.71875 C 16.84375 -31.070312 17.726562 -29.941406 18.1875 -28.328125 C 18.65625 -26.722656 18.890625 -24.710938 18.890625 -22.296875 L 18.890625 -10.65625 C 18.890625 -6.914062 18.523438 -4.3125 17.796875 -2.84375 C 17.078125 -1.375 16.109375 -0.425781 14.890625 0 C 14.179688 0.257812 13.394531 0.390625 12.53125 0.390625 C 11.675781 0.390625 10.890625 0.171875 10.171875 -0.265625 C 9.460938 -0.710938 8.882812 -1.269531 8.4375 -1.9375 L 8.4375 6.0625 Z M 8.4375 -9.34375 C 8.4375 -7.5625 8.609375 -6.253906 8.953125 -5.421875 C 9.296875 -4.597656 9.929688 -4.1875 10.859375 -4.1875 C 11.796875 -4.1875 12.421875 -4.613281 12.734375 -5.46875 C 13.046875 -6.332031 13.203125 -7.703125 13.203125 -9.578125 L 13.203125 -22.796875 C 13.203125 -25.347656 12.859375 -26.878906 12.171875 -27.390625 C 11.859375 -27.617188 11.457031 -27.734375 10.96875 -27.734375 C 10.125 -27.734375 9.488281 -27.378906 9.0625 -26.671875 C 8.644531 -25.972656 8.4375 -24.691406 8.4375 -22.828125 Z M 8.4375 -9.34375 "/></g></g></g><g fill="#6141ac" fill-opacity="1"><g transform="translate(261.032173, 343.906382)"><g><path d="M 10.25 0.390625 C 6.664062 0.390625 4.351562 -0.976562 3.3125 -3.71875 C 2.664062 -5.46875 2.34375 -7.765625 2.34375 -10.609375 L 2.34375 -22.5 C 2.34375 -29.019531 5.054688 -32.28125 10.484375 -32.28125 C 13.378906 -32.28125 15.382812 -31.421875 16.5 -29.703125 C 17.613281 -27.992188 18.171875 -25.554688 18.171875 -22.390625 L 18.171875 -15.5625 L 8.015625 -15.5625 L 8.015625 -9.296875 C 8.015625 -7.085938 8.207031 -5.679688 8.59375 -5.078125 C 8.976562 -4.472656 9.550781 -4.171875 10.3125 -4.171875 C 11.082031 -4.171875 11.582031 -4.347656 11.8125 -4.703125 C 12.1875 -5.328125 12.398438 -5.960938 12.453125 -6.609375 C 12.515625 -7.265625 12.546875 -8.160156 12.546875 -9.296875 L 12.546875 -12.109375 L 18.125 -12.109375 L 18.125 -10.40625 C 18.125 -7.507812 17.894531 -5.429688 17.4375 -4.171875 C 16.988281 -2.910156 16.46875 -1.992188 15.875 -1.421875 C 14.625 -0.210938 12.75 0.390625 10.25 0.390625 Z M 8 -18.859375 L 12.546875 -18.859375 L 12.546875 -22.953125 C 12.546875 -24.691406 12.40625 -25.941406 12.125 -26.703125 C 11.851562 -27.460938 11.289062 -27.84375 10.4375 -27.84375 C 10.425781 -27.84375 10.421875 -27.84375 10.421875 -27.84375 C 8.941406 -27.84375 8.148438 -26.71875 8.046875 -24.46875 C 8.015625 -24.039062 8 -23.484375 8 -22.796875 Z M 8 -18.859375 "/></g></g></g></svg>